<svg xmlns="http://www.w3.org/2000/svg" width="1280" height="260" viewBox="0 0 1280 260" role="img" aria-labelledby="title desc">
<title id="title">Edikka : un web clair, des preuves ouvertes.</title>
<desc id="desc">Identité Edikka : bleu nuit, accent vert olive, logotype et monogramme.</desc>
<rect width="1280" height="260" rx="12" fill="#0c1a24"/>
<path d="M880 0v260M944 0v260M1008 0v260M1072 0v260M1136 0v260M1200 0v260M880 52h400M880 116h400M880 180h400M880 244h400M880 308h400" stroke="#203441" stroke-width="1" opacity=".5"/>

<svg x="64" y="32" width="318" height="30" viewBox="0 0 882.45 81.97">
  
  <rect fill="#f7f8f3" x="342.95" y=".05" width="9.66" height="81.78" rx=".74" ry=".74"/>
  <path fill="#f7f8f3" d="M528.33.02c.2,0,.37.17.37.37,0,.1-.04.19-.11.26l-35.81,37.62c-.24.26-.25.66-.01.92,12.53,13.89,24.75,27.68,36.66,41.37.31.36.52.65.61.86.07.16-.01.35-.18.42-.04.01-.07.02-.11.02h-10.24c-.46,0-.9-.2-1.21-.54l-37.09-41.98c-.38-.43-.37-1.08.02-1.49L517.02.25c.13-.15.33-.23.53-.23h10.78Z"/>
  <rect fill="#f7f8f3" x="633.09" width="9.52" height="81.78" rx=".77" ry=".77"/>
  <path fill="#f7f8f3" d="M700.11.1c.2,0,.37.17.37.37,0,.1-.04.19-.11.26l-35.73,37.6c-.24.26-.25.66-.01.92,12.53,13.85,24.75,27.61,36.65,41.28.31.36.52.64.61.85.07.16,0,.35-.17.42-.04.02-.08.02-.12.02h-10.22c-.46.01-.9-.18-1.21-.52l-37.08-41.89c-.38-.43-.37-1.08.02-1.49L688.82.34c.13-.15.33-.23.53-.23h10.76ZM59.59,8.56H9.86c-.3,0-.55.25-.55.55v26.58c0,.3.25.55.55.55h44.95c.3,0,.55.25.55.55h0v7.44c0,.3-.25.55-.55.55H9.87c-.3,0-.55.25-.55.55h0v27.48c0,.3.25.55.55.55h50.22c.3,0,.55.25.55.55h0v7.42c0,.3-.25.55-.55.55H.55c-.3,0-.55-.25-.55-.55h0V.63C0,.33.25.08.55.08h59.04c.3,0,.55.25.55.55h0v7.38c0,.3-.25.55-.55.55h0M164.67.71c0-.34.28-.62.62-.62l32.22.05c22.54.04,40.79,18.02,40.75,40.16v1.54c-.04,22.14-18.34,40.06-40.89,40.02h0l-32.22-.05c-.34,0-.62-.28-.62-.62l.14-80.48ZM174.02,9.16v63.56c0,.33.26.59.59.59h21.99c17.76,0,32.16-14.2,32.16-31.71h0v-1.32c0-17.51-14.4-31.71-32.16-31.71h-21.99c-.33,0-.59.26-.59.59"/>
  <rect fill="#f7f8f3" x="461.45" y=".1" width="9.18" height="81.76" rx=".67" ry=".67"/>
  <path fill="#f7f8f3" d="M840.7.07c1.39,0,2.79.04,4.21.11.3.01.57.19.69.46l36.84,81.11c.03.08,0,.17-.08.21-.02,0-.04.01-.06.01h-9.71c-.14,0-.26-.08-.32-.21-11.59-25.99-21.98-49.25-31.17-69.8-.09-.2-.23-.3-.43-.3s-.35.1-.44.3c-9.29,20.5-19.8,43.71-31.53,69.63-.06.13-.18.21-.32.21l-9.71-.05c-.08,0-.15-.06-.15-.15,0-.02,0-.05.01-.07L835.79.61c.12-.27.39-.44.69-.45,1.42-.06,2.83-.09,4.22-.09"/>
</svg>
<path d="M64 82h44" stroke="#a3b74a" stroke-width="4"/>
<text x="61" y="145" fill="#f7f8f3" font-family="Arial, Helvetica, sans-serif" font-size="58" font-weight="700" letter-spacing="-1.8">Un web clair.</text>
<text x="61" y="210" fill="#d8e58a" font-family="Arial, Helvetica, sans-serif" font-size="58" font-weight="700" letter-spacing="-1.8">Des preuves ouvertes.</text>
<g transform="translate(969 60) scale(.60)" fill="#a3b74a"><path d="M168 100.38v16H17v99h202l-16 16H0v-131ZM187.01.38h62.78a115.5 115.5 0 0 1 0 231H224l16-16h9.79a99.5 99.5 0 0 0 0-199h-62.78ZM0 .38h168v16H0Z"/></g>
</svg>
